<svg width="150" height="150" viewBox="0 0 150 150" fill="none" xmlns="http://www.w3.org/2000/svg">
<path opacity="0.4" d="M75 33.1251V133.313C73.9375 133.313 72.8125 133.125 71.9375 132.625L71.6875 132.5C59.6875 125.938 38.75 119.063 25.1875 117.25L23.375 117C17.375 116.25 12.5 110.625 12.5 104.625V29.1251C12.5 21.6876 18.5625 16.0626 26 16.6876C39.125 17.7501 59 24.3751 70.125 31.3126L71.6875 32.2501C72.625 32.8126 73.8125 33.1251 75 33.1251Z" fill="#C1AA46"/>
<path d="M137.5 29.1876V104.625C137.5 110.625 132.625 116.25 126.625 117L124.562 117.25C110.938 119.063 89.9375 126 77.9375 132.625C77.125 133.125 76.125 133.313 75 133.313V33.1251C76.1875 33.1251 77.375 32.8126 78.3125 32.2501L79.375 31.5626C90.5 24.5626 110.438 17.8751 123.563 16.7501H123.938C131.375 16.1251 137.5 21.6876 137.5 29.1876Z" fill="#C1AA46"/>
<path d="M48.4375 57.75H34.375C31.8125 57.75 29.6875 55.625 29.6875 53.0625C29.6875 50.5 31.8125 48.375 34.375 48.375H48.4375C51 48.375 53.125 50.5 53.125 53.0625C53.125 55.625 51 57.75 48.4375 57.75Z" fill="#C1AA46"/>
<path d="M53.125 76.5H34.375C31.8125 76.5 29.6875 74.375 29.6875 71.8125C29.6875 69.25 31.8125 67.125 34.375 67.125H53.125C55.6875 67.125 57.8125 69.25 57.8125 71.8125C57.8125 74.375 55.6875 76.5 53.125 76.5Z" fill="#C1AA46"/>
</svg>
