<svg width="150" height="150" viewBox="0 0 150 150" fill="none" xmlns="http://www.w3.org/2000/svg">
<path d="M137.5 53.25V24.875C137.5 16.0625 133.5 12.5 123.563 12.5H98.3125C88.375 12.5 84.375 16.0625 84.375 24.875V53.1875C84.375 62.0625 88.375 65.5625 98.3125 65.5625H123.563C133.5 65.625 137.5 62.0625 137.5 53.25Z" fill="#C1AA46"/>
<path d="M137.5 123.563V98.3125C137.5 88.375 133.5 84.375 123.563 84.375H98.3125C88.375 84.375 84.375 88.375 84.375 98.3125V123.563C84.375 133.5 88.375 137.5 98.3125 137.5H123.563C133.5 137.5 137.5 133.5 137.5 123.563Z" fill="#C1AA46"/>
<path d="M65.625 53.25V24.875C65.625 16.0625 61.625 12.5 51.6875 12.5H26.4375C16.5 12.5 12.5 16.0625 12.5 24.875V53.1875C12.5 62.0625 16.5 65.5625 26.4375 65.5625H51.6875C61.625 65.625 65.625 62.0625 65.625 53.25Z" fill="#C1AA46"/>
<path d="M65.625 123.563V98.3125C65.625 88.375 61.625 84.375 51.6875 84.375H26.4375C16.5 84.375 12.5 88.375 12.5 98.3125V123.563C12.5 133.5 16.5 137.5 26.4375 137.5H51.6875C61.625 137.5 65.625 133.5 65.625 123.563Z" fill="#C1AA46"/>
</svg>
