<svg width="151" height="150" viewBox="0 0 151 150" fill="none" xmlns="http://www.w3.org/2000/svg">
<path d="M79.3906 105.5H83.7656C90.9531 105.5 96.8281 99.625 96.8281 92.4375V88.0625H79.3906V105.5Z" fill="#C1AA46"/>
<path d="M53.2031 92.4375C53.2031 99.625 59.0781 105.5 66.2656 105.5H70.6406V88.0625H53.2031V92.4375Z" fill="#C1AA46"/>
<path d="M53.2031 75V79.375H70.6406V61.9375H66.2656C59.0781 61.9375 53.2031 67.8125 53.2031 75Z" fill="#C1AA46"/>
<path d="M125.203 42.625L89.2656 17.4375C79.4531 10.5625 64.4531 10.9375 55.0156 18.25L23.7031 42.6875C17.3906 47.5625 12.5156 57.5625 12.5156 65.4375V108.563C12.5156 124.5 25.4531 137.5 41.3281 137.5H108.641C124.516 137.5 137.453 124.563 137.453 108.625V66.25C137.516 57.8125 132.078 47.4375 125.203 42.625ZM105.516 92.4375C105.516 104.438 95.7031 114.25 83.7031 114.25H66.2656C54.2656 114.25 44.4531 104.5 44.4531 92.4375V75C44.4531 63 54.2656 53.1875 66.2656 53.1875H83.7031C95.7031 53.1875 105.516 62.9375 105.516 75V92.4375Z" fill="#C1AA46"/>
<path d="M83.7656 61.9375H79.3906V79.375H96.8281V75C96.8281 67.8125 90.9531 61.9375 83.7656 61.9375Z" fill="#C1AA46"/>
</svg>
