<svg width="30" height="30" viewBox="0 0 30 30" fill="none" xmlns="http://www.w3.org/2000/svg">
<path d="M26.0751 10.4633L17.4126 3.53829C16.0751 2.46329 13.9126 2.46329 12.5876 3.52579L3.92509 10.4633C2.95009 11.2383 2.32509 12.8758 2.53759 14.1008L4.20009 24.0508C4.50009 25.8258 6.20009 27.2633 8.00009 27.2633H22.0001C23.7876 27.2633 25.5001 25.8133 25.8001 24.0508L27.4626 14.1008C27.6626 12.8758 27.0376 11.2383 26.0751 10.4633ZM15.0001 19.3758C13.2751 19.3758 11.8751 17.9758 11.8751 16.2508C11.8751 14.5258 13.2751 13.1258 15.0001 13.1258C16.7251 13.1258 18.1251 14.5258 18.1251 16.2508C18.1251 17.9758 16.7251 19.3758 15.0001 19.3758Z" fill="black"/>
</svg>
