<svg width="150" height="150" viewBox="0 0 150 150" fill="none" xmlns="http://www.w3.org/2000/svg">
<path d="M109.563 48.5625C109.125 48.5 108.688 48.5 108.25 48.5625C98.5625 48.25 90.875 40.3125 90.875 30.5625C90.875 20.625 98.9375 12.5 108.938 12.5C118.875 12.5 127 20.5625 127 30.5625C126.938 40.3125 119.25 48.25 109.563 48.5625Z" fill="#C1AA46"/>
<path d="M129.938 91.8751C122.938 96.5626 113.125 98.3126 104.062 97.1251C106.437 92.0001 107.687 86.3126 107.75 80.3126C107.75 74.0626 106.375 68.1251 103.75 62.9376C113 61.6876 122.813 63.4376 129.875 68.1251C139.75 74.6251 139.75 85.3126 129.938 91.8751Z" fill="#C1AA46"/>
<path d="M40.25 48.5625C40.6875 48.5 41.125 48.5 41.5625 48.5625C51.25 48.25 58.9375 40.3125 58.9375 30.5625C58.9375 20.5625 50.875 12.5 40.875 12.5C30.9375 12.5 22.875 20.5625 22.875 30.5625C22.875 40.3125 30.5625 48.25 40.25 48.5625Z" fill="#C1AA46"/>
<path d="M40.9375 80.3123C40.9375 86.3748 42.25 92.1248 44.625 97.3123C35.8125 98.2498 26.625 96.3748 19.875 91.9373C10 85.3748 10 74.6873 19.875 68.1248C26.5625 63.6248 36 61.8123 44.875 62.8123C42.3125 68.0623 40.9375 73.9998 40.9375 80.3123Z" fill="#C1AA46"/>
<path d="M75.75 99.1875C75.25 99.125 74.6875 99.125 74.125 99.1875C62.625 98.8125 53.4375 89.375 53.4375 77.75C53.5 65.875 63.0625 56.25 75 56.25C86.875 56.25 96.5 65.875 96.5 77.75C96.4375 89.375 87.3125 98.8125 75.75 99.1875Z" fill="#C1AA46"/>
<path d="M55.4375 112.125C46 118.438 46 128.813 55.4375 135.063C66.1875 142.25 83.8125 142.25 94.5625 135.063C104 128.75 104 118.375 94.5625 112.125C83.875 104.937 66.25 104.937 55.4375 112.125Z" fill="#C1AA46"/>
</svg>
