<svg width="150" height="150" viewBox="0 0 150 150" fill="none" xmlns="http://www.w3.org/2000/svg">
<path d="M71.875 131.25C104.667 131.25 131.25 104.667 131.25 71.875C131.25 39.0831 104.667 12.5 71.875 12.5C39.0831 12.5 12.5 39.0831 12.5 71.875C12.5 104.667 39.0831 131.25 71.875 131.25Z" fill="#C1AA46"/>
<path d="M133.125 137.5C132 137.5 130.875 137.062 130.062 136.25L118.438 124.625C116.75 122.937 116.75 120.187 118.438 118.437C120.125 116.75 122.875 116.75 124.625 118.437L136.25 130.062C137.937 131.75 137.937 134.5 136.25 136.25C135.375 137.062 134.25 137.5 133.125 137.5Z" fill="#C1AA46"/>
</svg>
